<svg width="35" height="35" viewBox="0 0 35 35" fill="none" xmlns="http://www.w3.org/2000/svg">
<circle cx="17.5" cy="17.5" r="17.5" fill="#FFE976"/>
<path d="M17.093 5.69766C12.593 5.69766 8.95349 9.64656 8.95349 14.5291C8.95349 16.7243 9.53489 18.7807 10.593 20.6353C11.6977 22.5782 13.1512 24.2436 14.2674 26.1865C14.814 27.1327 15.2093 28.0159 15.6279 29.0378C15.9302 29.7317 16.1744 30.9302 17.093 30.9302C18.0116 30.9302 18.2558 29.7317 18.5465 29.0378C18.9767 28.0159 19.3605 27.1327 19.907 26.1865C21.0233 24.2562 22.4767 22.5909 23.5814 20.6353C24.6512 18.7807 25.2326 16.7243 25.2326 14.5291C25.2326 9.64656 21.593 5.69766 17.093 5.69766ZM17.093 17.9985C15.4884 17.9985 14.186 16.5855 14.186 14.8445C14.186 13.1034 15.4884 11.6904 17.093 11.6904C18.6977 11.6904 20 13.1034 20 14.8445C20 16.5855 18.6977 17.9985 17.093 17.9985Z" fill="white"/>
</svg>
