<svg width="33" height="34" viewBox="0 0 33 34" fill="none" xmlns="http://www.w3.org/2000/svg">
<path d="M1.64885 24.6894C1.64885 24.6894 -2.71555 16.1452 2.81269 8.32919C8.34092 0.513172 16.4878 1.14428 16.4878 1.14428L16.7303 0.076252L20.0763 3.52307L16.6333 7.16407L16.4878 6.14459C16.4878 6.14459 10.2322 5.17366 6.3527 12.2615C6.3042 12.3586 6.25571 12.4071 6.20722 12.5042C5.81927 13.0868 3.92803 17.2132 5.96475 22.2621L2.57022 21.4368L1.64885 24.6894Z" fill="#F5B8B5"/>
<path opacity="0.94" d="M17.7001 1.09573C17.7001 1.09573 27.3018 1.53265 31.3268 10.2225C35.3517 18.9124 30.7933 25.6604 30.7933 25.6604L31.7632 26.1944L26.9624 27.408L25.5561 22.699L26.4774 23.1359C26.4774 23.1359 30.4054 18.1842 26.1865 11.2905C26.138 11.1934 26.0895 11.1449 26.041 11.0478C25.7015 10.4167 23.0829 6.72715 17.7001 6.04749L20.0763 3.52306L17.7001 1.09573Z" fill="#E84846"/>
<path d="M30.2114 26.5828C30.2114 26.5828 25.0711 34.6901 15.5179 33.8648C5.96475 33.0395 2.32775 25.6118 2.32775 25.6118L1.2124 26.0487L2.57021 21.3883L7.66201 22.6505L6.69215 23.233C6.69215 23.233 9.01983 29.1072 17.1182 28.8644C17.2152 28.8644 17.3122 28.8644 17.4092 28.8644C18.1366 28.913 22.598 28.4275 25.8955 24.1069L26.9139 27.4566L30.2114 26.5828Z" fill="#EF8E86"/>
<path d="M17.8941 24.5438H15.1785C14.4511 24.5438 13.8692 23.9612 13.8692 23.233V11.5818C13.8692 10.8536 14.4511 10.2711 15.1785 10.2711H17.8941C18.6215 10.2711 19.2034 10.8536 19.2034 11.5818V23.233C19.2034 23.9612 18.6215 24.5438 17.8941 24.5438Z" fill="#E73828"/>
<path d="M9.40778 18.6211V15.9025C9.40778 15.1743 9.98969 14.5917 10.7171 14.5917H22.3555C23.0829 14.5917 23.6648 15.1743 23.6648 15.9025V18.6211C23.6648 19.3493 23.0829 19.9319 22.3555 19.9319H10.7171C9.98969 19.9319 9.40778 19.3493 9.40778 18.6211Z" fill="#E73828"/>
</svg>
