<svg width="33" height="34" viewBox="0 0 33 34" fill="none" xmlns="http://www.w3.org/2000/svg">
<path d="M1.63597 24.6132C1.63597 24.6132 -2.72843 16.069 2.79981 8.25294C8.32805 0.43692 16.4749 1.06803 16.4749 1.06803L16.7174 0L20.0634 3.44682L16.6204 7.08782L16.4749 6.06834C16.4749 6.06834 10.2193 5.0974 6.33982 12.1852C6.29133 12.2823 6.24283 12.3309 6.19434 12.428C5.80639 13.0105 3.91515 17.137 5.95187 22.1858L2.55734 21.3606L1.63597 24.6132Z" fill="#F5B8B5"/>
<path opacity="0.94" d="M17.6873 1.01947C17.6873 1.01947 27.2889 1.45639 31.3139 10.1463C35.3388 18.8361 30.7805 25.5841 30.7805 25.5841L31.7503 26.1181L26.9495 27.3318L25.5432 22.6228L26.4645 23.0597C26.4645 23.0597 30.3925 18.1079 26.1736 11.2143C26.1251 11.1172 26.0766 11.0686 26.0281 10.9715C25.6887 10.3404 23.07 6.65089 17.6873 5.97124L20.0634 3.44681L17.6873 1.01947Z" fill="#E84846"/>
<path d="M30.1986 26.5065C30.1986 26.5065 25.0583 34.6138 15.5051 33.7885C5.95193 32.9632 2.31493 25.5356 2.31493 25.5356L1.19958 25.9725L2.5574 21.312L7.6492 22.5742L6.67933 23.1568C6.67933 23.1568 9.00701 29.0309 17.1054 28.7882C17.2024 28.7882 17.2994 28.7882 17.3964 28.7882C18.1238 28.8368 22.5851 28.3513 25.8827 24.0306L26.901 27.3804L30.1986 26.5065Z" fill="#EF8E86"/>
<path d="M17.8813 24.4675H15.1656C14.4382 24.4675 13.8563 23.885 13.8563 23.1568V11.5056C13.8563 10.7774 14.4382 10.1948 15.1656 10.1948H17.8813C18.6087 10.1948 19.1906 10.7774 19.1906 11.5056V23.1568C19.1906 23.885 18.6087 24.4675 17.8813 24.4675Z" fill="#E73828"/>
<path d="M9.3949 18.5448V15.8262C9.3949 15.098 9.97682 14.5155 10.7042 14.5155H22.3426C23.07 14.5155 23.6519 15.098 23.6519 15.8262V18.5448C23.6519 19.273 23.07 19.8556 22.3426 19.8556H10.7042C9.97682 19.8556 9.3949 19.273 9.3949 18.5448Z" fill="#E73828"/>
</svg>
