<svg width="35" height="35" viewBox="0 0 35 35" fill="none" xmlns="http://www.w3.org/2000/svg">
<circle cx="17.5" cy="17.5" r="17.5" fill="#2EB300"/>
<path d="M12.5548 15.97C13.9873 18.8147 16.2954 21.1367 19.1107 22.5942L21.2994 20.3828C21.568 20.1114 21.9659 20.0209 22.3141 20.1416C23.4283 20.5135 24.632 20.7145 25.8656 20.7145C26.4128 20.7145 26.8605 21.1669 26.8605 21.7197V25.2279C26.8605 25.7807 26.4128 26.233 25.8656 26.233C16.5242 26.233 8.95349 18.5835 8.95349 9.14474C8.95349 8.59188 9.40117 8.13954 9.94832 8.13954H13.4302C13.9774 8.13954 14.4251 8.59188 14.4251 9.14474C14.4251 10.4012 14.624 11.6075 14.9921 12.7333C15.1016 13.0851 15.022 13.4771 14.7434 13.7586L12.5548 15.97Z" fill="white"/>
</svg>
