<svg width="13" height="13" viewBox="0 0 13 13" fill="none" xmlns="http://www.w3.org/2000/svg">
<path d="M2.82216 5.50254C3.82883 7.50153 5.45069 9.13322 7.42908 10.1574L8.96705 8.60345C9.1558 8.41274 9.43543 8.34916 9.68011 8.43393C10.4631 8.69528 11.309 8.83655 12.1758 8.83655C12.5603 8.83655 12.8749 9.15441 12.8749 9.54291V12.0081C12.8749 12.3966 12.5603 12.7145 12.1758 12.7145C5.61148 12.7145 0.291504 7.33907 0.291504 0.706359C0.291504 0.317862 0.606088 0 0.990581 0H3.43735C3.82184 0 4.13643 0.317862 4.13643 0.706359C4.13643 1.58931 4.27624 2.43694 4.5349 3.22806C4.6118 3.47529 4.55587 3.75077 4.36013 3.94855L2.82216 5.50254Z" fill="white"/>
</svg>
